<svg width="122" height="228" viewBox="0 0 122 228" fill="none" xmlns="http://www.w3.org/2000/svg">
<path d="M0.808532 84.4841C0.948191 85.1719 1.62729 85.6315 2.22344 85.4815C8.22993 83.9696 14.1359 81.4503 19.7927 78.6451C31.0382 73.0687 41.9668 65.3945 50.1843 54.4842C54.5155 48.734 57.9398 42.129 60.1049 34.8704C60.0437 46.6366 59.9825 58.4026 59.9213 70.1686C55.7012 70.2748 51.3673 71.4823 47.3848 72.9853C37.7811 76.6097 29.0759 83.295 22.3508 92.2731C17.1206 99.2555 13.1997 107.385 10.256 116.043C10.0074 116.359 9.95991 116.725 10.0463 117.062C10.1411 117.793 10.8851 118.276 11.4867 118.142C16.3174 117.066 21.0779 115.06 25.607 112.828C35.1196 108.141 44.1402 101.495 51.1489 92.389C54.7095 87.7631 57.6451 82.5655 59.8862 76.922C59.8851 77.124 59.884 77.3261 59.883 77.528C59.8331 87.1191 59.7832 96.7102 59.7333 106.301C47.2605 107.919 34.8902 116.801 27.232 128.411C23.1907 134.537 20.3154 141.555 18.3995 148.993C18.227 149.308 18.2105 149.651 18.3009 149.962C18.4395 150.653 19.0764 151.093 19.7012 150.957C32.1195 148.24 44.4625 139.017 52.4026 127.471C55.3754 123.148 57.7987 118.395 59.6968 113.323C59.6494 122.436 59.602 131.549 59.5546 140.662C59.5046 140.711 59.4547 140.76 59.4049 140.809C55.298 140.456 50.8852 142.025 47.2257 144.042C37.3841 149.466 31.1204 160.658 27.3113 172.408C27.0874 172.729 27.0517 173.093 27.1379 173.425C27.2576 174.139 27.9549 174.661 28.5609 174.474C40.6544 170.736 54.3664 161.554 59.5205 147.251C59.4783 155.369 59.436 163.488 59.3938 171.607C59.3668 171.652 59.3339 171.702 59.2877 171.759C59.2084 171.855 59.1345 171.961 59.0585 172.062C59.0454 172.066 59.0328 172.072 59.0198 172.076C55.1814 172.654 51.3403 174.54 48.0979 176.974C40.607 182.596 36.5361 191.838 35.3172 202.124C35.3053 202.186 35.2964 202.247 35.2929 202.309C35.2879 202.353 35.2808 202.395 35.2759 202.439C35.2109 203.017 35.5465 203.46 35.9617 203.662C36.2287 203.827 36.5412 203.865 36.8392 203.705C47.2106 200.679 55.8705 191.033 59.3548 179.114C59.3333 183.237 59.3119 187.359 59.2904 191.481C54.4304 198.254 51.8377 206.71 53.9783 215.563C54.9872 219.735 56.8737 223.96 59.4355 227.082C59.4405 227.088 59.4469 227.093 59.452 227.099C59.458 227.105 59.4644 227.11 59.4706 227.117C59.8796 227.57 60.6462 227.634 61.0311 227.092C61.0391 227.081 61.0467 227.07 61.0547 227.058C61.1035 227.002 61.1473 226.939 61.1864 226.87C66.1103 219.851 69.2844 211.026 66.893 201.877C65.8944 198.057 64.0332 194.177 61.5474 191.407C61.5674 187.557 61.5874 183.706 61.6075 179.855C65.131 191.413 73.5189 200.767 83.6023 203.843C83.9011 204.011 84.2169 203.976 84.4876 203.811C84.904 203.614 85.2428 203.175 85.1839 202.598C85.179 202.549 85.1716 202.502 85.1665 202.454C85.1637 202.404 85.1567 202.354 85.1485 202.304C84.0398 191.995 80.0647 182.695 72.6275 176.978C69.4482 174.534 65.6788 172.617 61.8916 171.969C61.8476 171.906 61.8006 171.846 61.7573 171.782C61.7102 171.712 61.6769 171.654 61.6506 171.604C61.6875 164.495 61.7245 157.385 61.7615 150.276C61.7658 149.456 61.77 148.636 61.7743 147.817C66.9722 161.785 80.3331 170.895 92.1895 174.716C92.7932 174.911 93.4953 174.398 93.6229 173.686C93.7132 173.355 93.6814 172.991 93.4603 172.666C89.7738 160.871 83.6267 149.602 73.8423 144.059C70.2376 142.016 65.8892 140.405 61.8115 140.67C61.86 131.333 61.9086 121.995 61.9572 112.658C68.4759 130.809 81.8098 144.008 97.5743 150.006C98.9418 150.526 100.333 151.025 101.744 151.352C102.367 151.496 103.008 151.064 103.155 150.376C103.249 150.063 103.236 149.717 103.063 149.397C97.8073 128.133 83.8591 112.125 65.7844 107.041C64.5364 106.69 63.2663 106.379 61.9903 106.191C62.0265 99.2354 62.0627 92.28 62.0988 85.3246C62.1144 82.3231 62.1301 79.3215 62.1457 76.3201C70.0451 97.146 87.2518 110.579 105.233 117.06C106.9 117.661 108.589 118.237 110.299 118.64C110.899 118.781 111.647 118.308 111.75 117.578C111.841 117.24 111.796 116.871 111.547 116.55C106.856 102.277 99.3271 89.5369 88.5657 80.9647C81.9614 75.7041 74.3339 72.0841 66.4832 70.6281C65.0652 70.3651 63.6189 70.1292 62.1783 70.0721C62.2407 58.0934 62.303 46.1148 62.3653 34.136C69.5849 60.4921 92.4532 76.0236 113.45 83.9437C115.575 84.7453 117.724 85.5176 119.902 86.0937C120.496 86.2509 121.18 85.8003 121.327 85.1146C121.445 84.7654 121.423 84.3734 121.174 84.0322C116.061 66.9517 107.384 51.5691 94.6013 41.4745C86.7332 35.2609 77.6407 31.2242 68.2944 29.7364C66.5646 29.461 64.7985 29.2291 63.0467 29.2337C62.8291 29.0286 62.6116 28.8237 62.394 28.6186C62.4248 22.6976 62.4556 16.7767 62.4864 10.8557C62.5014 7.96393 62.7261 4.94588 62.5321 2.06051C62.5236 1.93492 62.5334 1.80407 62.5341 1.6775C62.5431 -0.0594898 60.2868 -0.0761142 60.2778 1.66376C60.239 9.12559 60.2002 16.5874 60.1613 24.049C60.153 25.6609 60.1446 27.2728 60.1362 28.8846C59.982 29.0266 59.8281 29.1683 59.6739 29.3102C54.5522 29.1985 49.2311 30.5311 44.362 32.2449C32.9876 36.2489 22.6777 44.0539 14.8554 54.7322C8.70401 63.1297 4.21373 72.9722 0.973601 83.4037C0.720581 83.7418 0.694388 84.1335 0.808532 84.4841ZM7.58999 80.9913C7.39375 81.0615 7.19632 81.1295 6.99974 81.1989C22.956 66.5041 38.9122 51.8095 54.8684 37.1147C55.8686 36.1937 56.8688 35.2726 57.8688 34.3514C50.2675 59.3331 27.8443 73.7529 7.58999 80.9913ZM56.495 73.2557C56.631 73.233 56.7682 73.213 56.9047 73.1913C43.4538 85.5388 30.0028 97.886 16.552 110.233C15.6908 111.024 14.8297 111.814 13.9686 112.605C22.1171 92.12 37.2671 76.4779 56.495 73.2557ZM16.1896 113.94C29.4183 101.797 42.6471 89.6533 55.8758 77.5098C56.5524 76.8887 57.229 76.2677 57.9056 75.6466C50.093 95.3665 33.3683 107.938 16.1896 113.94ZM56.5598 109.735C45.6503 120.936 34.7409 132.138 23.8313 143.339C23.172 144.016 22.5128 144.693 21.8535 145.369C27.8019 127.308 40.5276 114.096 56.5598 109.735ZM23.8847 146.83C34.7976 135.626 45.7106 124.421 56.6235 113.216C56.9669 112.864 57.3102 112.511 57.6536 112.159C51.2708 129.012 38.6265 141.234 23.8847 146.83ZM48.6889 146.197C51.0966 144.922 53.8603 143.888 56.6013 143.567C48.2592 151.771 39.9174 159.975 31.5753 168.179C31.4112 168.34 31.247 168.502 31.0829 168.663C34.8212 159.134 40.4703 150.55 48.6889 146.197ZM33.4316 169.831C41.3675 162.026 49.3035 154.222 57.2396 146.417C57.3017 146.356 57.3638 146.295 57.4259 146.234C53.297 157.63 43.3068 165.521 33.4316 169.831ZM49.8676 178.844C51.9309 177.388 54.1434 176.267 56.4485 175.494C56.1401 175.888 55.8321 176.283 55.5232 176.676C52.8331 180.103 50.115 183.499 47.3937 186.891C44.3408 190.695 41.2741 194.484 38.2062 198.272C39.8806 190.227 43.7213 183.18 49.8676 178.844ZM40.3527 199.494C43.4416 195.679 46.5307 191.863 49.6039 188.03C52.1116 184.902 54.6142 181.768 57.0932 178.608C54.2404 187.93 48.0645 195.681 40.3527 199.494ZM59.2673 195.886C59.2629 196.73 59.2586 197.574 59.2542 198.418C59.222 204.595 59.1899 210.772 59.1578 216.948C59.1488 218.68 59.0657 220.458 59.0413 222.225C57.9401 220.278 57.0601 218.111 56.4505 215.97C54.4038 208.781 55.8147 201.813 59.2673 195.886ZM64.4285 201.58C66.6897 208.881 64.8924 216.075 61.3871 222.15C61.419 216.018 61.4509 209.886 61.4828 203.754C61.4973 200.961 61.5119 198.167 61.5264 195.373C62.7652 197.251 63.7569 199.413 64.4285 201.58ZM63.5383 178.239C66.051 181.544 68.5921 184.819 71.1378 188.087C74.1381 191.939 77.1542 195.774 80.1702 199.609C72.4111 195.67 66.2603 187.725 63.5383 178.239ZM82.2911 198.368C79.3083 194.577 76.3266 190.785 73.3585 186.977C70.6825 183.544 68.01 180.107 65.3662 176.639C65.0677 176.247 64.77 175.854 64.4721 175.461C66.7038 176.259 68.8437 177.384 70.8382 178.826C76.9321 183.232 80.6972 190.314 82.2911 198.368ZM63.6194 146.126C71.5352 154.089 79.4509 162.051 87.3666 170.014C77.5368 165.584 67.6295 157.571 63.6194 146.126ZM89.7273 168.875C81.6212 160.721 73.5151 152.566 65.4091 144.412C65.0965 144.098 64.7839 143.783 64.4713 143.469C67.209 143.823 69.9632 144.89 72.3562 146.196C80.5288 150.656 86.0875 159.299 89.7273 168.875ZM71.7607 126.827C68.6101 122.387 66.0848 117.395 64.1704 112.066C74.8095 123.238 85.4485 134.411 96.0876 145.583C96.6652 146.19 97.2427 146.796 97.8205 147.403C87.8237 143.786 78.3438 136.104 71.7607 126.827ZM92.1879 129.618C95.4415 134.473 97.8993 139.967 99.6884 145.779C88.7329 134.274 77.7773 122.77 66.8216 111.265C66.2631 110.678 65.7046 110.092 65.1461 109.505C75.3148 112.058 85.7039 119.943 92.1879 129.618ZM73.4131 91.6731C69.6594 86.9159 66.5747 81.495 64.3135 75.57C77.4459 87.903 90.5784 100.236 103.711 112.569C104.435 113.249 105.159 113.929 105.883 114.609C93.7593 110.575 81.8731 102.395 73.4131 91.6731ZM73.607 75.398C82.8091 78.8474 91.0987 85.2438 97.555 93.8072C101.864 99.5226 105.266 106.105 107.907 113.103C94.5852 100.592 81.2632 88.0809 67.9411 75.57C67.0548 74.7377 66.1685 73.9054 65.2823 73.073C68.116 73.5231 70.9377 74.3975 73.607 75.398ZM104.126 77.0042C93.1899 71.5553 82.5798 64.0489 74.5386 53.5054C70.2595 47.8949 66.8974 41.4255 64.8005 34.2978C80.5676 49.1528 96.3346 64.0077 112.102 78.8625C113.156 79.8558 114.21 80.8492 115.265 81.8425C111.475 80.4844 107.747 78.8083 104.126 77.0042ZM77.0628 34.7162C88.035 38.5749 97.9134 46.0897 105.462 56.3714C110.737 63.5567 114.74 71.906 117.724 80.7481C101.606 65.5621 85.4871 50.3759 69.3685 35.1897C68.2634 34.1485 67.1581 33.1072 66.0529 32.066C69.7875 32.4348 73.5376 33.4766 77.0628 34.7162ZM29.8641 42.9414C37.4186 37.2989 46.0907 33.5967 54.9452 32.3781C55.4793 32.3045 56.0176 32.2395 56.5571 32.1808C40.5421 46.9296 24.5273 61.6785 8.51248 76.4273C7.16236 77.6705 5.81242 78.9139 4.46247 80.1571C9.76636 65.0885 18.1354 51.7018 29.8641 42.9414Z" fill="#717969"/>
</svg>
