<svg width="63" height="60" viewBox="0 0 63 60" fill="none" xmlns="http://www.w3.org/2000/svg">
<path fill-rule="evenodd" clip-rule="evenodd" d="M31.5858 0C48.7426 0 62.6502 13.6103 62.6502 30.4025C62.6502 43.8322 53.7595 55.2248 41.4239 59.2486C39.8489 59.5481 39.2898 58.5987 39.2898 57.7891C39.2898 56.7869 39.327 53.5134 39.327 49.445C39.327 46.6102 38.333 44.7601 37.2178 43.8171C44.1358 43.0639 51.4049 40.4928 51.4049 28.8157C51.4049 25.4946 50.1996 22.7845 48.2052 20.6554C48.5283 19.8874 49.5938 16.7951 47.9008 12.6081C47.9008 12.6081 45.2976 11.7935 39.3674 15.7254C36.8854 15.0523 34.2263 14.7136 31.5858 14.7018C28.9454 14.7136 26.2894 15.0523 23.8104 15.7254C17.874 11.7935 15.2646 12.6081 15.2646 12.6081C13.5778 16.7951 14.6433 19.8874 14.9633 20.6554C12.9783 22.7845 11.7637 25.4946 11.7637 28.8157C11.7637 40.4632 19.0172 43.0737 25.9166 43.8417C25.0281 44.6008 24.2236 45.94 23.944 47.9059C22.1733 48.6828 17.6752 50.0274 14.9043 45.3808C14.9043 45.3808 13.261 42.4597 10.1421 42.2462C10.1421 42.2462 7.11333 42.2078 9.93087 44.0937C9.93087 44.0937 11.9656 45.0277 13.379 48.5415C13.379 48.5415 15.2025 53.9678 23.8446 52.1294C23.8601 54.6706 23.8881 57.0656 23.8881 57.7891C23.8881 58.5927 23.3165 59.5332 21.7664 59.2515C9.42141 55.2336 0.521484 43.8351 0.521484 30.4025C0.521484 13.6103 14.4321 0 31.5858 0Z" fill="#D9DED3"/>
</svg>
