<svg width="63" height="60" viewBox="0 0 63 60" fill="none" xmlns="http://www.w3.org/2000/svg">
<path d="M31.5 0C14.1312 0 0 13.457 0 30C0 46.543 14.1312 60 31.5 60C48.8688 60 63 46.543 63 30C63 13.457 48.8688 0 31.5 0ZM21.913 43.0435H16.4348V23.4783H21.913V43.0435ZM19.1739 19.5652C17.6605 19.5652 16.4348 18.3978 16.4348 16.9565C16.4348 15.5152 17.6605 14.3478 19.1739 14.3478C20.6873 14.3478 21.913 15.5152 21.913 16.9565C21.913 18.3978 20.6873 19.5652 19.1739 19.5652ZM47.9348 43.0435H42.4565V36.5217V33.2609C42.4565 30.75 40.2995 28.6957 37.663 28.6957C35.0266 28.6957 32.8696 30.75 32.8696 33.2609V43.0435H27.3913V23.4783H32.8696V25.847C34.4692 24.3835 36.6386 23.4783 39.0326 23.4783C43.9493 23.4783 47.9348 27.2739 47.9348 31.9565V43.0435Z" fill="#D9DED3"/>
</svg>
